<svg width="16" height="16" viewBox="0 0 16 16" fill="none" xmlns="http://www.w3.org/2000/svg">
<path fill-rule="evenodd" clip-rule="evenodd" d="M11.1291 10.2054L14.6654 13.7417L13.7417 14.6654L10.2054 11.1291L11.1291 10.2054Z" fill="#BFBFBF"/>
<path fill-rule="evenodd" clip-rule="evenodd" d="M7.21029 2.63831C4.68525 2.63831 2.63831 4.68525 2.63831 7.21029C2.63831 9.73532 4.68525 11.7823 7.21029 11.7823C9.73532 11.7823 11.7823 9.73532 11.7823 7.21029C11.7823 4.68525 9.73532 2.63831 7.21029 2.63831ZM1.33203 7.21029C1.33203 3.96382 3.96382 1.33203 7.21029 1.33203C10.4568 1.33203 13.0885 3.96382 13.0885 7.21029C13.0885 10.4568 10.4568 13.0885 7.21029 13.0885C3.96382 13.0885 1.33203 10.4568 1.33203 7.21029Z" fill="#BFBFBF"/>
</svg>
