<svg width="20" height="20" viewBox="0 0 20 20" fill="none" xmlns="http://www.w3.org/2000/svg">
<path d="M17.734 7.646L12.775 6.9253L10.5582 2.43116C10.4976 2.30811 10.398 2.2085 10.275 2.14796C9.96638 1.99561 9.59138 2.12257 9.43708 2.43116L7.22028 6.9253L2.2613 7.646C2.12458 7.66553 1.99958 7.72999 1.90388 7.82764C1.78818 7.94656 1.72442 8.10655 1.72662 8.27245C1.72881 8.43835 1.79679 8.5966 1.91559 8.71241L5.50348 12.2105L4.65583 17.1499C4.63595 17.2648 4.64867 17.383 4.69253 17.491C4.7364 17.5991 4.80966 17.6927 4.90401 17.7612C4.99836 17.8297 5.11002 17.8704 5.22634 17.8787C5.34265 17.887 5.45896 17.8626 5.56208 17.8081L9.99763 15.4761L14.4332 17.8081C14.5543 17.8726 14.6949 17.894 14.8297 17.8706C15.1695 17.812 15.398 17.4898 15.3394 17.1499L14.4918 12.2105L18.0797 8.71241C18.1773 8.61671 18.2418 8.49171 18.2613 8.35499C18.314 8.01319 18.0758 7.69678 17.734 7.646ZM12.982 11.7183L13.6871 15.8257L9.99763 13.8882L6.30817 15.8276L7.01325 11.7202L4.02888 8.81007L8.15388 8.21046L9.99763 4.47413L11.8414 8.21046L15.9664 8.81007L12.982 11.7183Z" fill="#E8E8E8"/>
</svg>
